<?xml version="1.0" standalone="no"?>
<!DOCTYPE svg PUBLIC "-//W3C//DTD SVG 20010904//EN"
 "http://www.w3.org/TR/2001/REC-SVG-20010904/DTD/svg10.dtd">
<svg version="1.0" xmlns="http://www.w3.org/2000/svg"
 width="225.000000pt" height="225.000000pt" viewBox="0 0 225.000000 225.000000"
 preserveAspectRatio="xMidYMid meet">

<g transform="translate(0.000000,225.000000) scale(0.100000,-0.100000)"
fill="#000000" stroke="none">
<path d="M0 1125 l0 -1125 1125 0 1125 0 0 1125 0 1125 -1125 0 -1125 0 0
-1125z m928 78 l3 -133 -306 0 -305 0 0 135 0 135 303 -2 302 -3 3 -132z m337
63 c14 -22 18 -43 16 -88 -3 -65 -97 -93 -146 -43 -28 27 -35 98 -12 128 27
38 118 40 142 3z m-165 9 c0 -9 -9 -15 -25 -15 -24 0 -25 -2 -25 -75 0 -68 -2
-75 -20 -75 -18 0 -20 7 -20 75 l0 75 -30 0 c-20 0 -30 5 -30 15 0 12 15 15
75 15 60 0 75 -3 75 -15z m340 0 c0 -9 -9 -15 -25 -15 -23 0 -24 -3 -27 -72
-2 -60 -6 -73 -20 -76 -16 -3 -18 6 -18 72 l0 76 -30 0 c-20 0 -30 5 -30 15 0
12 15 15 75 15 60 0 75 -3 75 -15z m70 -15 c18 -44 28 -45 47 -6 12 26 23 36
40 36 22 0 22 -1 -12 -59 -20 -34 -35 -73 -35 -91 0 -25 -4 -31 -17 -28 -13 2
-20 16 -23 44 -3 22 -18 61 -33 87 l-28 47 24 0 c18 0 28 -8 37 -30z m254 14
c9 -8 16 -28 16 -44 0 -38 -24 -60 -66 -60 -31 0 -34 -2 -34 -30 0 -23 -4 -30
-20 -30 -19 0 -20 7 -20 90 l0 90 54 0 c36 0 60 -5 70 -16z m166 1 c0 -11 -12
-15 -45 -15 -38 0 -45 -3 -45 -20 0 -17 7 -20 40 -20 29 0 40 -4 40 -15 0 -11
-11 -15 -40 -15 -36 0 -40 -2 -40 -25 0 -23 4 -25 45 -25 33 0 45 -4 45 -15 0
-12 -14 -15 -65 -15 l-65 0 0 90 0 90 65 0 c51 0 65 -3 65 -15z m-1542 -287
c3 -37 3 -38 -32 -38 -35 0 -36 1 -36 41 0 39 1 40 33 37 29 -3 32 -6 35 -40z
m89 26 c3 -8 1 -20 -5 -26 -6 -6 -8 -18 -5 -27 4 -14 2 -13 -10 2 -17 21 -37
22 -37 2 0 -8 -4 -15 -10 -15 -11 0 -14 63 -3 73 13 14 64 7 70 -9z m81 4 c30
-30 0 -75 -43 -64 -41 11 -29 76 15 76 9 0 21 -5 28 -12z m80 5 c-13 -3 -19
-16 -20 -41 l-1 -37 -4 37 c-3 24 -10 38 -21 41 -9 3 1 5 23 5 22 0 32 -2 23
-5z m57 -23 c14 0 25 7 28 18 3 9 5 -3 5 -28 0 -25 -2 -37 -5 -27 -3 10 -14
17 -28 17 -14 0 -25 -7 -28 -17 -3 -10 -5 2 -5 27 0 25 2 37 5 28 3 -11 14
-18 28 -18z m98 23 c-37 -5 -42 -17 -15 -32 16 -10 16 -10 0 -11 -31 0 -19
-19 15 -23 31 -4 31 -4 -5 -5 -38 -2 -38 -2 -38 38 0 40 0 40 38 38 36 -1 36
-1 5 -5z m102 -35 c1 -34 -1 -36 -15 -23 -22 20 -38 19 -43 -2 -3 -10 -5 1 -6
25 -1 43 -1 43 32 40 30 -3 32 -6 32 -40z m91 26 c3 9 11 16 17 16 5 0 3 -8
-6 -18 -10 -10 -18 -29 -18 -43 -2 -22 -2 -22 -6 -2 -2 12 -11 27 -19 33 -8 7
-14 17 -14 23 0 5 9 2 20 -8 18 -16 20 -16 26 -1z m108 -6 c24 -40 -44 -80
-71 -42 -17 23 -16 29 3 49 20 20 53 16 68 -7z m57 -48 c15 0 19 7 19 35 0 19
5 35 10 35 14 0 12 -54 -2 -68 -31 -31 -82 13 -62 55 6 14 9 10 12 -19 2 -30
7 -38 23 -38z m152 41 c3 30 4 28 5 -10 l2 -45 -29 28 -29 28 -5 -28 c-3 -20
-4 -15 -5 16 l-1 45 29 -34 29 -34 4 34z m121 -3 l14 -32 17 33 c9 18 19 31
21 28 6 -6 -27 -77 -36 -77 -3 0 -14 16 -23 35 -14 29 -22 35 -47 35 -33 0
-39 -14 -12 -29 16 -10 16 -10 0 -11 -31 0 -19 -19 15 -23 31 -4 31 -4 -5 -5
-38 -2 -38 -2 -38 38 l0 40 40 0 c36 0 42 -4 54 -32z m109 25 c-37 -5 -42 -17
-15 -32 16 -10 16 -10 0 -11 -31 0 -19 -19 15 -23 31 -4 31 -4 -5 -5 -38 -2
-38 -2 -38 38 0 40 0 40 38 38 36 -1 36 -1 5 -5z m102 -35 c0 -39 -8 -49 -19
-23 -8 21 -34 19 -39 -2 -3 -10 -5 1 -6 25 -1 43 -1 43 32 40 30 -3 32 -6 32
-40z m90 12 c14 0 25 7 28 18 3 9 5 -3 5 -28 0 -25 -2 -37 -5 -27 -3 10 -14
17 -28 17 -14 0 -25 -7 -28 -17 -3 -10 -5 2 -5 27 0 25 2 37 5 28 3 -11 14
-18 28 -18z m105 -10 c11 -22 16 -40 10 -40 -5 0 -10 5 -10 10 0 6 -11 10 -25
10 -14 0 -25 -5 -25 -12 0 -6 -3 -9 -6 -6 -6 6 22 78 30 78 3 0 15 -18 26 -40z
m100 20 c16 -30 -4 -60 -40 -60 -28 0 -30 2 -30 40 0 38 2 40 30 40 19 0 33
-7 40 -20z"/>
<path d="M360 1200 l0 -90 58 0 c66 0 102 19 102 55 0 13 -4 26 -8 29 -5 3 -7
19 -4 36 7 47 -11 60 -84 60 l-64 0 0 -90z m100 35 c0 -9 -9 -15 -25 -15 -16
0 -25 6 -25 15 0 9 9 15 25 15 16 0 25 -6 25 -15z m-1 -58 c14 -17 4 -27 -26
-27 -16 0 -23 6 -23 20 0 23 31 27 49 7z"/>
<path d="M540 1200 c0 -89 0 -90 25 -90 20 0 25 5 25 25 0 14 6 25 13 25 8 0
19 -11 25 -25 8 -17 20 -25 37 -25 29 0 29 0 13 35 -9 19 -9 28 0 37 7 7 12
29 12 50 0 47 -19 58 -94 58 l-56 0 0 -90z m100 31 c0 -20 -25 -35 -41 -25 -5
3 -9 14 -9 25 0 14 7 19 25 19 18 0 25 -5 25 -19z"/>
<path d="M732 1274 c-18 -12 -22 -25 -22 -67 0 -58 5 -69 37 -86 50 -26 116
-5 133 42 14 41 3 94 -23 112 -28 20 -97 19 -125 -1z m96 -64 c4 -41 -20 -65
-49 -49 -22 11 -27 74 -6 83 32 13 52 1 55 -34z"/>
<path d="M1162 1248 c-27 -27 -5 -108 29 -108 30 0 49 22 49 58 0 43 -14 62
-45 62 -12 0 -26 -5 -33 -12z"/>
<path d="M1680 1230 c0 -28 3 -31 28 -28 21 2 27 8 27 28 0 20 -6 26 -27 28
-25 3 -28 0 -28 -28z"/>
<path d="M330 1005 c0 -11 7 -15 23 -13 12 2 22 8 22 13 0 6 -10 11 -22 13
-16 2 -23 -2 -23 -13z"/>
<path d="M330 970 c0 -5 11 -10 25 -10 14 0 25 5 25 10 0 6 -11 10 -25 10 -14
0 -25 -4 -25 -10z"/>
<path d="M420 1005 c0 -11 7 -15 23 -13 12 2 22 8 22 13 0 6 -10 11 -22 13
-16 2 -23 -2 -23 -13z"/>
<path d="M504 1006 c-10 -26 4 -48 28 -44 17 2 23 10 23 28 0 18 -6 26 -23 28
-13 2 -25 -3 -28 -12z"/>
<path d="M840 1005 c0 -9 9 -15 25 -15 16 0 25 6 25 15 0 9 -9 15 -25 15 -16
0 -25 -6 -25 -15z"/>
<path d="M1034 1005 c-9 -23 3 -45 25 -45 23 0 35 28 20 46 -15 18 -38 18 -45
-1z"/>
<path d="M1580 1005 c0 -9 9 -15 25 -15 16 0 25 6 25 15 0 9 -9 15 -25 15 -16
0 -25 -6 -25 -15z"/>
<path d="M1800 1000 c0 -5 5 -10 11 -10 5 0 7 5 4 10 -3 6 -8 10 -11 10 -2 0
-4 -4 -4 -10z"/>
<path d="M1870 990 c0 -27 3 -31 23 -28 16 2 22 10 22 28 0 18 -6 26 -22 28
-20 3 -23 -1 -23 -28z"/>
</g>
</svg>
